<svg width="20" height="21" viewBox="0 0 20 21" fill="none" xmlns="http://www.w3.org/2000/svg">
<path d="M10 0.5C4.4775 0.5 0 4.9775 0 10.5C0 16.0225 4.4775 20.5 10 20.5C15.5225 20.5 20 16.0225 20 10.5C20 4.9775 15.5225 0.5 10 0.5ZM15.5892 8.58917L9.28917 14.8892C9.1325 15.0458 8.92083 15.1333 8.7 15.1333C8.47917 15.1333 8.26667 15.0458 8.11083 14.8892L5.23333 12.0117C4.9075 11.6858 4.9075 11.1592 5.23333 10.8333C5.55917 10.5075 6.08583 10.5075 6.41167 10.8333L8.7 13.1217L14.4108 7.41083C14.7367 7.085 15.2633 7.085 15.5892 7.41083C15.915 7.73667 15.915 8.26333 15.5892 8.58917Z" fill="#3EB489"/>
</svg>
