<svg width="19" height="19" viewBox="0 0 19 19" fill="none" xmlns="http://www.w3.org/2000/svg">
<path d="M7.18282 0.539226C7.11342 0.538309 7.04104 0.544439 6.96977 0.56071C5.94035 0.793544 4.9786 1.20314 4.11235 1.7513C3.6201 2.06297 3.55574 2.75948 3.96733 3.17106L3.96912 3.17285C4.26428 3.46802 4.72714 3.53796 5.07914 3.31429C5.78223 2.86696 6.56612 2.53628 7.40303 2.34928C7.80912 2.25853 8.08337 1.8783 8.08337 1.46305C8.08337 0.951325 7.66866 0.545643 7.18282 0.539226ZM10.8191 0.539226C10.333 0.546257 9.91671 0.951325 9.91671 1.46305V1.46484C9.91671 1.88468 10.1998 2.25849 10.6096 2.35108C13.8812 3.08624 16.3334 6.01025 16.3334 9.5C16.3334 12.9898 13.8812 15.9138 10.6096 16.6489C10.1998 16.7415 9.91671 17.1153 9.91671 17.5352V17.537C9.91671 18.1218 10.4601 18.5695 11.0303 18.4393C15.1104 17.5135 18.1667 13.8569 18.1667 9.5C18.1667 5.14309 15.1104 1.48746 11.0303 0.56071C10.959 0.544554 10.8885 0.538221 10.8191 0.539226ZM1.92273 4.20052C1.65793 4.22642 1.40718 4.36618 1.25134 4.61231C0.703177 5.47856 0.294501 6.44031 0.0607513 7.46973C-0.0684987 8.0399 0.378262 8.58334 0.963095 8.58334C1.37835 8.58334 1.75858 8.30816 1.84933 7.903C2.03541 7.06516 2.367 6.28219 2.81433 5.5791C3.038 5.2271 2.96806 4.76424 2.67289 4.46908L2.6711 4.46729C2.46531 4.26149 2.18753 4.17463 1.92273 4.20052ZM12.6488 6.74105C12.4107 6.74815 12.1846 6.84768 12.0186 7.01856L8.08337 10.9538L6.89815 9.76856C6.81369 9.68058 6.71252 9.61034 6.60056 9.56196C6.48861 9.51357 6.36813 9.48801 6.24618 9.48677C6.12423 9.48553 6.00325 9.50863 5.89034 9.55473C5.77742 9.60083 5.67484 9.66899 5.58861 9.75523C5.50237 9.84147 5.4342 9.94405 5.3881 10.057C5.34201 10.1699 5.3189 10.2909 5.32014 10.4128C5.32138 10.5348 5.34694 10.6552 5.39533 10.7672C5.44372 10.8791 5.51395 10.9803 5.60193 11.0648L7.43526 12.8981C7.60718 13.07 7.8403 13.1665 8.08337 13.1665C8.32645 13.1665 8.55957 13.07 8.73149 12.8981L13.3148 8.31478C13.4473 8.18602 13.5378 8.02025 13.5744 7.83919C13.611 7.65813 13.5921 7.47023 13.5201 7.30011C13.4481 7.12999 13.3264 6.98559 13.1709 6.88583C13.0154 6.78607 12.8335 6.7356 12.6488 6.74105ZM0.963095 10.4167C0.378262 10.4167 -0.0694153 10.9601 0.0607513 11.5303C0.294501 12.5597 0.70226 13.5214 1.25134 14.3877C1.56209 14.8799 2.25952 14.9443 2.6711 14.5327C2.96719 14.2366 3.038 13.7729 2.81433 13.4209C2.367 12.7178 2.03633 11.9339 1.84933 11.097C1.75858 10.6909 1.37835 10.4167 0.963095 10.4167ZM4.50444 15.5622C4.30758 15.5885 4.1167 15.6796 3.96912 15.8272L3.96733 15.8289C3.55574 16.2405 3.6201 16.937 4.11235 17.2487C4.9786 17.7969 5.94035 18.2055 6.96977 18.4393C7.53993 18.5685 8.08337 18.1218 8.08337 17.537C8.08337 17.1217 7.8082 16.7415 7.40303 16.6507C6.56612 16.4637 5.7831 16.133 5.08093 15.6857C4.90493 15.5739 4.70129 15.5358 4.50444 15.5622Z" fill="#3EB489"/>
</svg>
