<svg width="47" height="39" viewBox="0 0 47 39" fill="none" xmlns="http://www.w3.org/2000/svg">
<path d="M4.35105 2.86279L13.5589 9.85771L20.7868 15.3423L21.5647 21.5646H18.1612L12.5591 11.7509C12.5423 11.7214 12.5218 11.6951 12.4994 11.671L4.35105 2.86279ZM4.35105 2.86279L15.7464 9.09462L24.9323 12.7048L33.0994 21.5646H22.4321L21.6183 15.0545C21.6038 14.9387 21.3488 15.5061 21.5647 14.8686L13.737 8.96744L4.35105 2.86279ZM10.125 9.85771L16.4957 20.3879L0.204979 8.2298L10.125 9.85771ZM39.0572 12.5627L43.1919 16.5469L37.1949 16.4674L39.0572 12.5627ZM38.0511 12.6642L36.11 16.7021C36.0922 16.7392 36.0807 16.7781 36.0741 16.8176L33.9675 21.2347L29.3763 16.2385L38.0511 12.6642ZM32.445 22.4255L23.0153 27.7543L18.615 22.4255H22.0506L22.0516 22.4257C22.0521 22.4257 22.0524 22.4255 22.053 22.4255H32.445Z" fill="white"/>
<path d="M9.93176 7.18433L20.7868 15.3423L21.5647 21.5646H18.1612L12.5591 11.7509C12.5423 11.7214 12.5218 11.6951 12.4994 11.671L9.93176 7.18433ZM11.4192 7.22535L24.9323 12.7048L33.0994 21.5646H22.4321L21.6183 15.0544C21.6038 14.9387 21.5431 14.8338 21.4498 14.7637L11.4192 7.22535ZM11.5913 12.3439L16.4957 20.3879L6.21487 12.6328L11.5913 12.3439ZM39.0572 12.5627L43.1919 16.5469L37.1949 16.4674L39.0572 12.5627ZM38.0511 12.6642L36.11 16.7021C36.0922 16.7392 36.0807 16.7781 36.0741 16.8176L33.9675 21.2347L29.3763 16.2385L38.0511 12.6642ZM32.445 22.4255L23.0153 27.7542L18.615 22.4255H22.0506L22.0516 22.4257C22.0521 22.4257 22.0524 22.4255 22.053 22.4255H32.445ZM17.1005 22.8894L14.2884 30.0996L9.16417 27.1714L17.1005 22.8894ZM17.9786 23.0071L22.3289 28.275L11.9853 38.3741L17.9786 23.0071Z" fill="white"/>
<path d="M11.5913 12.3439L6.21487 12.6328L10.8627 11.2821L11.5913 12.3439Z" fill="white"/>
<path fill-rule="evenodd" clip-rule="evenodd" d="M45.7559 17.8955C45.7559 27.066 38.3217 34.5002 29.1512 34.5002C25.722 34.5002 22.5355 33.4606 19.8898 31.6794L19.5579 32.534C22.3128 34.3432 25.6091 35.3955 29.1512 35.3955C38.8162 35.3955 46.6512 27.5605 46.6512 17.8955C46.6512 8.23052 38.8162 0.395508 29.1512 0.395508C23.2748 0.395508 18.0749 3.29192 14.9013 7.73501L15.6471 8.23144C18.6599 4.02891 23.5858 1.29086 29.1512 1.29086C38.3217 1.29086 45.7559 8.72501 45.7559 17.8955ZM14.9013 28.056L15.3542 27.1374C13.6327 24.5725 12.6075 21.5011 12.5492 18.1939L11.6555 17.5066C11.6527 17.6359 11.6512 17.7655 11.6512 17.8955C11.6512 21.6841 12.8551 25.1915 14.9013 28.056Z" fill="white"/>
</svg>
